<svg xmlns="http://www.w3.org/2000/svg" viewBox="0 0 365.14 90.71"><defs><style>.cls-1{fill:none;}.cls-2{fill:#8ebae5;}.cls-3{fill:#00549f;}.cls-4{fill:#bdcd00;}.cls-5{fill:#006165;}</style></defs><g id="Schutzraum"><rect class="cls-1" width="365.14" height="90.71"/><rect class="cls-1" width="365.14" height="90.71"/><rect class="cls-1" width="365.14" height="90.71"/><rect class="cls-1" width="365.14" height="90.71"/><rect class="cls-1" width="365.14" height="90.71"/></g><g id="Logo"><path class="cls-2" d="M290.32,67.85h4.34V58.74H297c1.75,0,2.5,1,2.56,2.72l.12,4.13a4.12,4.12,0,0,0,.55,2.26h4.7v-.18c-.81-.42-.93-1.6-1-3.86-.06-4.56-.51-6.19-3.47-6.58v-.06c2.44-.51,3.59-2.44,3.59-5.31,0-3.68-2.17-5.55-5.73-5.55h-8Zm4.34-18.34h2.06a2.66,2.66,0,0,1,3,3c0,2.33-1.17,3.23-3.26,3.23h-1.81Z" transform="translate(0 0)"/><path class="cls-2" d="M226.26,46.31v15c0,5.77,3.34,6.94,6.88,6.94S240,66.83,240,61.33v-15h-4.35v15c0,2.15-.51,3.75-2.53,3.75s-2.54-1.6-2.54-3.75v-15Z" transform="translate(0 0)"/><polygon class="cls-2" points="241.08 46.31 241.08 67.85 245.06 67.85 245.06 52.77 245.12 52.77 250.43 67.85 255.38 67.85 255.38 46.31 251.4 46.31 251.4 61.06 251.34 61.06 246.09 46.31 241.08 46.31"/><rect class="cls-2" x="256.5" y="46.31" width="4.34" height="21.55"/><polygon class="cls-2" points="261.14 46.31 266.09 67.85 271.67 67.85 276.62 46.31 272.13 46.31 268.93 62.24 268.84 62.24 265.79 46.31 261.14 46.31"/><polygon class="cls-2" points="277.01 46.31 277.01 67.85 289.35 67.85 289.35 64.29 281.36 64.29 281.36 58.5 288.6 58.5 288.6 54.94 281.36 54.94 281.36 49.87 289.05 49.87 289.05 46.31 277.01 46.31"/><path class="cls-2" d="M304.44,61.12V62c0,4,1.93,6.27,6.85,6.27,4.71,0,7.48-2,7.48-6.6,0-2.63-.84-4.29-4.1-5.71l-3.35-1.45c-1.84-.78-2.23-1.59-2.23-2.92a2.22,2.22,0,0,1,2.47-2.51c1.66,0,2.35,1.18,2.35,3.2h4.17v-.6c0-4.14-2.81-5.8-6.67-5.8-4.1,0-6.67,2.15-6.67,6.34,0,3.59,1.78,5.19,5.64,6.52,2.87,1,3.87,1.72,3.87,3.68a2.49,2.49,0,0,1-2.6,2.66c-2.29,0-2.87-1.3-2.87-3.32v-.64Z" transform="translate(0 0)"/><rect class="cls-2" x="319.34" y="46.31" width="4.34" height="21.55"/><polygon class="cls-2" points="346.25 46.31 343.24 54.63 343.18 54.63 340.34 46.31 324.25 46.31 324.25 49.87 328.96 49.87 328.96 67.85 333.31 67.85 333.31 49.87 336.97 49.87 341.03 59.37 341.03 67.85 345.38 67.85 345.38 59.37 350.96 46.31 346.25 46.31"/><path class="cls-3" d="M188.08,44.35h-7.2V22.71h11.81a7.05,7.05,0,0,1,5.1,12.1c.25.68.5,1.21.73,1.82.52,1.2,1,2.41,1.52,3.6l1.72,4.12h-7.3a1,1,0,0,0-.12-.25c-.29-.64-.55-1.32-.84-2L191.74,38c-.69-1.69-1.39-3.28-2.09-5a5.27,5.27,0,0,0,2.36-.25,2.66,2.66,0,0,0,1.51-2.39,2.71,2.71,0,0,0-.67-1.75,2.63,2.63,0,0,0-2-.88h-2.8Z" transform="translate(0 0)"/><path class="cls-3" d="M263.29,22.71V44.35h-7.2V35.52h-5v8.83c-1.31,0-2.71,0-4,0h-3.18V27.71h-5V44.35h-7.2V27.71h-5.08V44.35h-7.41c-1.29-3.12-2.66-6.27-3.92-9.38-.15-.65-.29-1.31-.48-1.94V44.35h-7.43c-1.48-3.43-2.89-6.79-4.36-10.26-.51-1.21-.93-2.19-1.45-3.44l-.07-.16-1.15-2.69L198.62,24c-.14-.44-.37-.83-.52-1.26h7.42c1.52,3.7,3.06,7.35,4.66,11l0,.08c-.06-.42-.19-.95-.26-1.36V26c0-1,0-2.21,0-3.26h7.43c.09.23.15.36.22.55.87,2,1.7,4.08,2.57,6.11l1.94,4.42c0-.46-.14-.91-.2-1.36V22.71h29.13v7.8h5v-7.8h7.2Z" transform="translate(0 0)"/><path class="cls-2" d="M284.17,36.19l2.1-9.73h.06l2.09,9.73Zm-14.42,0,2.09-9.73h.06L274,36.19ZM289,22.7h-5.4l-4.52,17.06L274.57,22.7h-5.4l-5.73,21.65H268l1-4.58h5.76l1,4.58h6.67l1-4.58h5.76l1,4.58h4.54Z" transform="translate(0 0)"/><path class="cls-2" d="M307.72,30.09c0-3.14-.45-7.7-6.67-7.7-6.51,0-7.33,4.65-7.33,11.2s.82,11.19,7.33,11.19c5.71,0,6.85-4,6.85-8.66h-4.34c0,4.65-1.15,5.47-2.72,5.47-1.87,0-2.77-1.18-2.77-7.7,0-6.09.51-8.3,2.71-8.3,2,0,2.6,1.36,2.6,4.5Z" transform="translate(0 0)"/><polygon class="cls-2" points="308.76 44.35 313.13 44.35 313.13 34.74 318.22 34.74 318.22 44.35 322.58 44.35 322.58 22.71 318.22 22.71 318.22 30.98 313.13 30.98 313.13 22.71 308.76 22.71 308.76 44.35"/><polygon class="cls-2" points="323.53 22.7 323.53 44.35 335.93 44.35 335.93 40.77 327.9 40.77 327.9 34.95 335.17 34.95 335.17 31.37 327.9 31.37 327.9 26.28 335.63 26.28 335.63 22.7 323.53 22.7"/><polygon class="cls-2" points="336.58 22.71 336.58 44.35 340.58 44.35 340.58 29.19 340.64 29.19 345.97 44.35 350.94 44.35 350.94 22.71 346.94 22.71 346.94 37.53 346.88 37.53 341.61 22.71 336.58 22.71"/><rect class="cls-3" x="166.21" y="22.68" width="1" height="45.36"/><path class="cls-4" d="M39.46,47l-6.71-5a2.88,2.88,0,0,0,.42-1.49,2.84,2.84,0,1,0-4.36,2.39L22.36,55.31l.45.23,6.44-12.42a2.78,2.78,0,0,0,1.08.22,2.85,2.85,0,0,0,2.12-1l6.71,5a3.79,3.79,0,0,1,.3-.4m14.2-14.62a4.19,4.19,0,0,1-.5,0L50.71,64.18a3.12,3.12,0,0,0-.82.13l-3.53-8.47-.46.2,3.53,8.46a2.84,2.84,0,1,0,1.78-.28Z" transform="translate(0 0)"/><path class="cls-5" d="M53.85,20.86A5.76,5.76,0,0,0,51,31.61L45.41,45.06a5.58,5.58,0,0,0-1.49-.19,5.76,5.76,0,0,0-5.76,5.76,5.57,5.57,0,0,0,.2,1.48L24.93,57.66a5.78,5.78,0,1,0,.76,2.88,5.58,5.58,0,0,0-.19-1.49L38.93,53.5a5.76,5.76,0,1,0,7.87-7.87l5.56-13.45a5.7,5.7,0,0,0,1.49.2,5.76,5.76,0,0,0,0-11.52" transform="translate(0 0)"/><path class="cls-3" d="M121.62,66.27v.19a2.6,2.6,0,0,0,.09.71,1.22,1.22,0,0,0,.31.54,1.5,1.5,0,0,0,.61.34,3.28,3.28,0,0,0,1,.12,2.92,2.92,0,0,0,.8-.1,1.7,1.7,0,0,0,.63-.32,1.46,1.46,0,0,0,.42-.53,1.72,1.72,0,0,0,.15-.74,1.52,1.52,0,0,0-.27-1,1.9,1.9,0,0,0-.92-.58l-.83-.28a1,1,0,0,1-.48-.27A.6.6,0,0,1,123,64a.49.49,0,0,1,.19-.43.75.75,0,0,1,.46-.15.53.53,0,0,1,.47.2,1.08,1.08,0,0,1,.14.61h1.24V64a1.43,1.43,0,0,0-.45-1.13,2,2,0,0,0-1.39-.4,2.73,2.73,0,0,0-.91.13,1.72,1.72,0,0,0-.61.35,1.3,1.3,0,0,0-.35.52,1.8,1.8,0,0,0-.11.62,1.5,1.5,0,0,0,.29.94,1.82,1.82,0,0,0,.86.56l1,.35a1.15,1.15,0,0,1,.35.22.5.5,0,0,1,.15.39.59.59,0,0,1-.19.48.76.76,0,0,1-.51.16A.7.7,0,0,1,123,67a.88.88,0,0,1-.18-.57v-.18Zm-3.31-1.54v-.21a2.45,2.45,0,0,1,0-.38,1.13,1.13,0,0,1,.11-.34.67.67,0,0,1,.22-.25.53.53,0,0,1,.34-.1.63.63,0,0,1,.35.09.53.53,0,0,1,.21.25,1.37,1.37,0,0,1,.1.4,4,4,0,0,1,0,.54Zm2.73.82v-.31a6.41,6.41,0,0,0-.08-1.12,2.13,2.13,0,0,0-.3-.86,1.39,1.39,0,0,0-.6-.55,2.21,2.21,0,0,0-1-.2,2.39,2.39,0,0,0-1.12.23,1.59,1.59,0,0,0-.64.62,2.53,2.53,0,0,0-.3.89,7,7,0,0,0-.08,1c0,.33,0,.67,0,1a2.77,2.77,0,0,0,.24.93,1.66,1.66,0,0,0,.62.67,2.25,2.25,0,0,0,1.17.26,1.89,1.89,0,0,0,1.45-.5,2.18,2.18,0,0,0,.5-1.45h-1.24a1.81,1.81,0,0,1-.22.76.54.54,0,0,1-.51.25.51.51,0,0,1-.32-.1,1,1,0,0,1-.21-.28,1.56,1.56,0,0,1-.11-.4,3.57,3.57,0,0,1,0-.47v-.43Zm-8.67.72v.19a2.6,2.6,0,0,0,.09.71,1.24,1.24,0,0,0,.32.54,1.45,1.45,0,0,0,.6.34,3.33,3.33,0,0,0,1,.12,2.87,2.87,0,0,0,.8-.1,1.83,1.83,0,0,0,.64-.32,1.43,1.43,0,0,0,.41-.53,1.72,1.72,0,0,0,.15-.74,1.52,1.52,0,0,0-.27-1,1.85,1.85,0,0,0-.92-.58l-.83-.28a.9.9,0,0,1-.47-.27.61.61,0,0,1-.13-.36.5.5,0,0,1,.2-.43.72.72,0,0,1,.45-.15.55.55,0,0,1,.48.2,1.08,1.08,0,0,1,.13.61h1.24V64a1.43,1.43,0,0,0-.45-1.13,2,2,0,0,0-1.39-.4,2.67,2.67,0,0,0-.9.13,1.76,1.76,0,0,0-.62.35,1.41,1.41,0,0,0-.35.52,1.8,1.8,0,0,0-.11.62,1.5,1.5,0,0,0,.29.94,1.87,1.87,0,0,0,.86.56l1,.35a1,1,0,0,1,.35.22.5.5,0,0,1,.15.39.59.59,0,0,1-.19.48.73.73,0,0,1-.51.16.66.66,0,0,1-.53-.21.89.89,0,0,1-.19-.57v-.18Zm-2.11.13a.93.93,0,0,1-.08.39.82.82,0,0,1-.2.25.85.85,0,0,1-.28.15,1,1,0,0,1-.29,0A.41.41,0,0,1,109,67a1.09,1.09,0,0,1-.12-.53.85.85,0,0,1,.18-.57,1.06,1.06,0,0,1,.6-.3l.29-.09a1.49,1.49,0,0,0,.3-.18ZM109,64.3v-.15a.76.76,0,0,1,.16-.51.59.59,0,0,1,.48-.19.62.62,0,0,1,.5.18.74.74,0,0,1,.14.48.61.61,0,0,1-.12.41.82.82,0,0,1-.43.22l-.78.21a3.26,3.26,0,0,0-.61.23,1.4,1.4,0,0,0-.42.33,1.18,1.18,0,0,0-.25.47,2.46,2.46,0,0,0-.08.65,2.13,2.13,0,0,0,.07.55,1.67,1.67,0,0,0,.22.49,1.07,1.07,0,0,0,.4.36,1.28,1.28,0,0,0,.61.14,2.12,2.12,0,0,0,.82-.14,1.24,1.24,0,0,0,.55-.56h0c0,.09,0,.19.07.29a1,1,0,0,0,.1.27h1.32a1.72,1.72,0,0,1-.13-.45,3.07,3.07,0,0,1,0-.59V64.16a2.73,2.73,0,0,0-.07-.66,1.15,1.15,0,0,0-.29-.53,1.35,1.35,0,0,0-.59-.34,3.46,3.46,0,0,0-1-.12,2.86,2.86,0,0,0-.73.09,1.51,1.51,0,0,0-.6.28,1.38,1.38,0,0,0-.41.51,1.81,1.81,0,0,0-.15.78v.13ZM104.24,64a.61.61,0,0,1,1.18,0,4.82,4.82,0,0,1,.13,1.32,5,5,0,0,1-.13,1.33.62.62,0,0,1-1.18,0,4.88,4.88,0,0,1-.14-1.33,4.74,4.74,0,0,1,.14-1.32m-1.52,4H104v-.57h0a1.63,1.63,0,0,0,.52.55,1.37,1.37,0,0,0,.7.16,1.35,1.35,0,0,0,1.25-.66,4.39,4.39,0,0,0,.4-2.17,4.32,4.32,0,0,0-.4-2.16,1.34,1.34,0,0,0-1.25-.67,1.24,1.24,0,0,0-.66.16,1.74,1.74,0,0,0-.5.48h0V60.89h-1.38ZM100.4,66.4a.93.93,0,0,1-.08.39.88.88,0,0,1-.48.4,1,1,0,0,1-.29,0,.41.41,0,0,1-.4-.22,1.09,1.09,0,0,1-.12-.53.85.85,0,0,1,.18-.57,1.06,1.06,0,0,1,.6-.3l.29-.09a1.49,1.49,0,0,0,.3-.18Zm-1.28-2.1v-.15a.76.76,0,0,1,.16-.51.73.73,0,0,1,1,0,.69.69,0,0,1,.15.48.61.61,0,0,1-.12.41.82.82,0,0,1-.43.22l-.78.21a3.38,3.38,0,0,0-.62.23,1.4,1.4,0,0,0-.42.33,1.16,1.16,0,0,0-.24.47,2.46,2.46,0,0,0-.08.65,2.13,2.13,0,0,0,.07.55,1.67,1.67,0,0,0,.22.49,1.07,1.07,0,0,0,.4.36,1.28,1.28,0,0,0,.61.14,2.07,2.07,0,0,0,.81-.14,1.25,1.25,0,0,0,.56-.56h0l.06.29a1.53,1.53,0,0,0,.11.27h1.32a2.3,2.3,0,0,1-.14-.45,4.47,4.47,0,0,1,0-.59V64.16a2.71,2.71,0,0,0-.08-.66,1.13,1.13,0,0,0-.28-.53,1.34,1.34,0,0,0-.6-.34,3.34,3.34,0,0,0-1-.12,2.94,2.94,0,0,0-.74.09,1.51,1.51,0,0,0-.6.28,1.36,1.36,0,0,0-.4.51,1.81,1.81,0,0,0-.15.78v.13ZM95,62.65h-.7v.94H95v3.08a4.21,4.21,0,0,0,0,.68,1,1,0,0,0,.19.44.77.77,0,0,0,.38.23,2.42,2.42,0,0,0,.66.07l.46,0,.44,0v-1l-.15,0h-.16c-.2,0-.33,0-.39-.13a.78.78,0,0,1-.1-.46V63.59h.8v-.94h-.8V61.11H95ZM92.39,66.4a.8.8,0,0,1-.08.39.82.82,0,0,1-.2.25.85.85,0,0,1-.28.15,1,1,0,0,1-.29,0,.42.42,0,0,1-.4-.22,1.09,1.09,0,0,1-.12-.53.85.85,0,0,1,.18-.57,1.06,1.06,0,0,1,.6-.3l.29-.09a1.49,1.49,0,0,0,.3-.18Zm-1.28-2.1v-.15a.82.82,0,0,1,.16-.51.59.59,0,0,1,.48-.19.61.61,0,0,1,.5.18.74.74,0,0,1,.14.48.61.61,0,0,1-.12.41.82.82,0,0,1-.43.22l-.78.21a3.26,3.26,0,0,0-.61.23,1.4,1.4,0,0,0-.42.33,1.32,1.32,0,0,0-.25.47,2.46,2.46,0,0,0-.08.65,2.67,2.67,0,0,0,.07.55,1.67,1.67,0,0,0,.22.49,1.16,1.16,0,0,0,.4.36,1.28,1.28,0,0,0,.61.14,2.09,2.09,0,0,0,.82-.14,1.24,1.24,0,0,0,.55-.56h0c0,.09,0,.19.07.29a1.48,1.48,0,0,0,.1.27h1.32a2.23,2.23,0,0,1-.13-.45,3.07,3.07,0,0,1,0-.59V64.16a2.73,2.73,0,0,0-.07-.66,1.15,1.15,0,0,0-.29-.53,1.35,1.35,0,0,0-.59-.34,3.46,3.46,0,0,0-1-.12,2.86,2.86,0,0,0-.73.09,1.51,1.51,0,0,0-.6.28,1.38,1.38,0,0,0-.41.51,1.81,1.81,0,0,0-.15.78v.13ZM84.29,68h2.27a2.78,2.78,0,0,0,1.19-.22,1.79,1.79,0,0,0,.75-.67A3.31,3.31,0,0,0,88.89,66,9.74,9.74,0,0,0,89,64.36a10.33,10.33,0,0,0-.09-1.43,3,3,0,0,0-.35-1.09,1.71,1.71,0,0,0-.71-.7,2.5,2.5,0,0,0-1.21-.25H84.29ZM85.73,62h.61a1.14,1.14,0,0,1,.65.16.91.91,0,0,1,.37.46,2.94,2.94,0,0,1,.17.77c0,.3,0,.65,0,1.06s0,.89,0,1.22a2.49,2.49,0,0,1-.18.79.88.88,0,0,1-.37.43,1.21,1.21,0,0,1-.6.13h-.64ZM78.16,64a.61.61,0,0,1,1.18,0,4.74,4.74,0,0,1,.14,1.32,4.88,4.88,0,0,1-.14,1.33.62.62,0,0,1-1.18,0A5,5,0,0,1,78,65.34,4.82,4.82,0,0,1,78.16,64m1.38,4h1.32V60.89H79.48v2.26h0a1.74,1.74,0,0,0-.5-.48,1.24,1.24,0,0,0-.66-.16,1.34,1.34,0,0,0-1.25.67,4.32,4.32,0,0,0-.4,2.16,4.39,4.39,0,0,0,.4,2.17,1.35,1.35,0,0,0,1.25.66A1.37,1.37,0,0,0,79,68a1.63,1.63,0,0,0,.52-.55h0Zm-7.83,0h1.38V64.46c0-.59.25-.89.73-.89a.55.55,0,0,1,.45.17.87.87,0,0,1,.14.58V68h1.38V64a1.61,1.61,0,0,0-.35-1.17,1.38,1.38,0,0,0-1-.36,1.63,1.63,0,0,0-.8.19,1.39,1.39,0,0,0-.57.58h0v-.63H71.71ZM69.39,66.4a.93.93,0,0,1-.08.39.88.88,0,0,1-.48.4,1,1,0,0,1-.29,0,.41.41,0,0,1-.4-.22,1.09,1.09,0,0,1-.12-.53.85.85,0,0,1,.18-.57,1.06,1.06,0,0,1,.6-.3l.29-.09a1.49,1.49,0,0,0,.3-.18Zm-1.28-2.1v-.15a.76.76,0,0,1,.16-.51.73.73,0,0,1,1,0,.69.69,0,0,1,.15.48.61.61,0,0,1-.12.41.82.82,0,0,1-.43.22l-.78.21a3.38,3.38,0,0,0-.62.23,1.4,1.4,0,0,0-.42.33,1.16,1.16,0,0,0-.24.47,2.46,2.46,0,0,0-.08.65,2.13,2.13,0,0,0,.07.55,1.67,1.67,0,0,0,.22.49,1.07,1.07,0,0,0,.4.36,1.28,1.28,0,0,0,.61.14,2.07,2.07,0,0,0,.81-.14,1.25,1.25,0,0,0,.56-.56h0l.06.29a1.53,1.53,0,0,0,.11.27h1.32a2.3,2.3,0,0,1-.14-.45,4.47,4.47,0,0,1,0-.59V64.16a2.71,2.71,0,0,0-.08-.66,1.13,1.13,0,0,0-.28-.53,1.34,1.34,0,0,0-.6-.34,3.34,3.34,0,0,0-1-.12,2.94,2.94,0,0,0-.74.09,1.51,1.51,0,0,0-.6.28,1.36,1.36,0,0,0-.4.51,1.81,1.81,0,0,0-.15.78v.13Z" transform="translate(0 0)"/><path class="cls-3" d="M145.83,54.93v.19a2.6,2.6,0,0,0,.09.71,1.24,1.24,0,0,0,.32.54,1.45,1.45,0,0,0,.6.34,3.33,3.33,0,0,0,1,.12,2.92,2.92,0,0,0,.8-.1,1.83,1.83,0,0,0,.64-.32,1.45,1.45,0,0,0,.41-.53,1.72,1.72,0,0,0,.15-.74,1.54,1.54,0,0,0-.27-1,1.85,1.85,0,0,0-.92-.58l-.83-.28a.9.9,0,0,1-.47-.27.52.52,0,0,1-.13-.36.5.5,0,0,1,.2-.43.72.72,0,0,1,.45-.15.55.55,0,0,1,.48.2,1.08,1.08,0,0,1,.13.61h1.24V52.7a1.45,1.45,0,0,0-.45-1.13,2.08,2.08,0,0,0-1.39-.4,3,3,0,0,0-.9.13,1.94,1.94,0,0,0-.62.35,1.41,1.41,0,0,0-.35.52,1.8,1.8,0,0,0-.11.62,1.5,1.5,0,0,0,.29.94,1.82,1.82,0,0,0,.86.56l1,.35a1.38,1.38,0,0,1,.35.22.5.5,0,0,1,.15.39.57.57,0,0,1-.19.48.73.73,0,0,1-.51.16.66.66,0,0,1-.53-.21.82.82,0,0,1-.19-.57v-.18Zm-7.42,1.76h1.38V53.15a1,1,0,0,1,.2-.7.68.68,0,0,1,.52-.22.49.49,0,0,1,.42.18,1,1,0,0,1,.12.52v3.76h1.38V53.15a1,1,0,0,1,.2-.7.68.68,0,0,1,.52-.22.48.48,0,0,1,.42.18,1,1,0,0,1,.12.52v3.76h1.38V52.78a1.92,1.92,0,0,0-.32-1.19,1.22,1.22,0,0,0-1-.42,1.5,1.5,0,0,0-.84.22,1.23,1.23,0,0,0-.52.64h0a1.08,1.08,0,0,0-.43-.64,1.48,1.48,0,0,0-.81-.22,1.79,1.79,0,0,0-.77.16,1.72,1.72,0,0,0-.59.53h0v-.55h-1.32Zm-3.53-3.3v-.21a1.69,1.69,0,0,1,0-.38,1.23,1.23,0,0,1,.11-.34.67.67,0,0,1,.22-.25.53.53,0,0,1,.34-.1.63.63,0,0,1,.35.09.53.53,0,0,1,.21.25,1.37,1.37,0,0,1,.1.4c0,.15,0,.34,0,.54Zm2.73.82V53.9a6.41,6.41,0,0,0-.08-1.12,2.13,2.13,0,0,0-.3-.86,1.45,1.45,0,0,0-.6-.55,2.21,2.21,0,0,0-1-.2,2.39,2.39,0,0,0-1.12.23,1.66,1.66,0,0,0-.64.62,2.53,2.53,0,0,0-.3.89,7.07,7.07,0,0,0-.08,1c0,.34,0,.67.05,1a2.77,2.77,0,0,0,.24.93,1.66,1.66,0,0,0,.62.67,2.16,2.16,0,0,0,1.17.26,1.89,1.89,0,0,0,1.45-.5,2.18,2.18,0,0,0,.5-1.45h-1.24a1.76,1.76,0,0,1-.22.76.54.54,0,0,1-.51.25.51.51,0,0,1-.32-.1.86.86,0,0,1-.21-.28,1.56,1.56,0,0,1-.11-.4,2.42,2.42,0,0,1,0-.47v-.43Zm-6.7-2.9h-.7v.94h.7v3.08A4.12,4.12,0,0,0,131,56a1,1,0,0,0,.19.44.7.7,0,0,0,.38.23,2.42,2.42,0,0,0,.66.07,3.46,3.46,0,0,0,.46,0l.44,0v-1l-.15,0h-.16c-.2,0-.33,0-.39-.13a.76.76,0,0,1-.1-.46V52.25h.8v-.94h-.8V49.77h-1.38Zm-5.1,3.62v.19a2.6,2.6,0,0,0,.09.71,1.15,1.15,0,0,0,.32.54,1.39,1.39,0,0,0,.6.34,3.28,3.28,0,0,0,1,.12,2.92,2.92,0,0,0,.8-.1,1.83,1.83,0,0,0,.64-.32,1.45,1.45,0,0,0,.41-.53,1.72,1.72,0,0,0,.15-.74,1.54,1.54,0,0,0-.27-1,1.9,1.9,0,0,0-.92-.58l-.83-.28a.9.9,0,0,1-.47-.27.52.52,0,0,1-.13-.36.49.49,0,0,1,.19-.43.75.75,0,0,1,.46-.15.56.56,0,0,1,.48.2,1.08,1.08,0,0,1,.13.61h1.24V52.7a1.45,1.45,0,0,0-.45-1.13,2.08,2.08,0,0,0-1.39-.4,3,3,0,0,0-.9.13,1.94,1.94,0,0,0-.62.35,1.3,1.3,0,0,0-.35.52,1.8,1.8,0,0,0-.11.62,1.5,1.5,0,0,0,.29.94,1.82,1.82,0,0,0,.86.56l1,.35a1.38,1.38,0,0,1,.35.22.5.5,0,0,1,.15.39.57.57,0,0,1-.19.48.76.76,0,0,1-.51.16.7.7,0,0,1-.54-.21.86.86,0,0,1-.18-.57v-.18Zm-4.27,3.52h.56a3.5,3.5,0,0,0,.79-.07,1,1,0,0,0,.54-.29,2.45,2.45,0,0,0,.45-.8,4.9,4.9,0,0,0,.29-1l1.3-5h-1.38l-.7,3.72h0l-.8-3.72h-1.44l1.51,5.38a1,1,0,0,1-.2.56.64.64,0,0,1-.54.2l-.36,0Zm-5.57-4v.29a2.14,2.14,0,0,0,.52,1.54,2.35,2.35,0,0,0,1.74.54,2.79,2.79,0,0,0,1.83-.53,2,2,0,0,0,.66-1.66,2.74,2.74,0,0,0-.07-.6,1.43,1.43,0,0,0-.21-.49,1.67,1.67,0,0,0-.42-.42,3.72,3.72,0,0,0-.67-.38l-1.11-.48a1.19,1.19,0,0,1-.59-.41,1,1,0,0,1-.14-.56,1.63,1.63,0,0,1,0-.31.58.58,0,0,1,.13-.26.65.65,0,0,1,.26-.19,1,1,0,0,1,.39-.07.67.67,0,0,1,.61.28,1.41,1.41,0,0,1,.17.78h1.38v-.2a2.08,2.08,0,0,0-.16-.87,1.46,1.46,0,0,0-.46-.6,1.83,1.83,0,0,0-.7-.34,3.5,3.5,0,0,0-.89-.11,2.42,2.42,0,0,0-1.62.52,2,2,0,0,0-.59,1.58,2.32,2.32,0,0,0,.12.78,1.52,1.52,0,0,0,.34.59,2.16,2.16,0,0,0,.58.44,4.43,4.43,0,0,0,.84.35,4.66,4.66,0,0,1,.6.24,1.52,1.52,0,0,1,.4.25.93.93,0,0,1,.21.32,1.21,1.21,0,0,1,.07.41.82.82,0,0,1-.27.67,1,1,0,0,1-.6.21,1,1,0,0,1-.46-.08.64.64,0,0,1-.29-.22.77.77,0,0,1-.16-.34,3.15,3.15,0,0,1,0-.46v-.21Zm-7.16,2.23h1.38V53.12c0-.59.24-.89.72-.89a.55.55,0,0,1,.45.17.86.86,0,0,1,.15.58v3.71h1.38v-4a1.61,1.61,0,0,0-.36-1.17,1.37,1.37,0,0,0-1-.36,1.6,1.6,0,0,0-.8.19,1.33,1.33,0,0,0-.57.58h0v-.63h-1.31Zm-3.65-3.45a3.12,3.12,0,0,1,.1-.6.93.93,0,0,1,.22-.39.56.56,0,0,1,.4-.14.58.58,0,0,1,.58.44,4.6,4.6,0,0,1,.16,1.45,4.52,4.52,0,0,1-.16,1.45.57.57,0,0,1-.58.44.52.52,0,0,1-.4-.14.82.82,0,0,1-.22-.39,2.87,2.87,0,0,1-.1-.6c0-.23,0-.48,0-.76s0-.52,0-.76m-1.3,2a2.4,2.4,0,0,0,.34.89,1.49,1.49,0,0,0,.65.54,2.62,2.62,0,0,0,1,.16,2.45,2.45,0,0,0,1-.18,1.64,1.64,0,0,0,.65-.54,2.25,2.25,0,0,0,.36-.89A5.58,5.58,0,0,0,108,54a6.44,6.44,0,0,0-.1-1.23,2.29,2.29,0,0,0-.34-.9,1.36,1.36,0,0,0-.65-.53,2.55,2.55,0,0,0-1-.17,2.27,2.27,0,0,0-1,.19,1.58,1.58,0,0,0-.66.54,2.53,2.53,0,0,0-.36.88,6.35,6.35,0,0,0-.11,1.22,7.31,7.31,0,0,0,.1,1.24m-2.33,1.45h1.38V51.31h-1.38Zm0-6h1.38V49.47h-1.38Zm-2.83.66H98v.94h.7v3.08a3.25,3.25,0,0,0,0,.68.93.93,0,0,0,.18.44.69.69,0,0,0,.39.23,2.33,2.33,0,0,0,.66.07,3.24,3.24,0,0,0,.45,0l.45,0v-1l-.15,0h-.16a.48.48,0,0,1-.4-.13.86.86,0,0,1-.09-.46V52.25h.8v-.94h-.8V49.77H98.7Zm-2.65,3.75a.9.9,0,0,1-.08.39.74.74,0,0,1-.21.25.72.72,0,0,1-.27.15,1,1,0,0,1-.29,0,.41.41,0,0,1-.4-.22,1.07,1.07,0,0,1-.12-.53.85.85,0,0,1,.18-.57,1.06,1.06,0,0,1,.6-.3l.29-.09a1.59,1.59,0,0,0,.3-.18ZM94.77,53v-.15a.76.76,0,0,1,.16-.51.59.59,0,0,1,.48-.19.59.59,0,0,1,.49.18.71.71,0,0,1,.15.48.61.61,0,0,1-.12.41.79.79,0,0,1-.43.22l-.78.21a4.31,4.31,0,0,0-.62.23,1.4,1.4,0,0,0-.42.33,1.16,1.16,0,0,0-.24.47,2.1,2.1,0,0,0-.08.65,2.13,2.13,0,0,0,.07.55,1.37,1.37,0,0,0,.22.49,1.07,1.07,0,0,0,.4.36,1.15,1.15,0,0,0,.61.14,1.9,1.9,0,0,0,.81-.14,1.25,1.25,0,0,0,.56-.56h0l.06.29a1.28,1.28,0,0,0,.11.27h1.32a2.3,2.3,0,0,1-.14-.45,4.37,4.37,0,0,1,0-.59V52.82a2.71,2.71,0,0,0-.08-.66,1.13,1.13,0,0,0-.28-.53,1.44,1.44,0,0,0-.6-.34,3.43,3.43,0,0,0-1-.12,2.94,2.94,0,0,0-.74.09,1.51,1.51,0,0,0-.6.28,1.36,1.36,0,0,0-.4.51,1.87,1.87,0,0,0-.15.78V53Zm-8.84,3.73h1.38V53.15a1,1,0,0,1,.19-.7.69.69,0,0,1,.52-.22.47.47,0,0,1,.42.18,1,1,0,0,1,.12.52v3.76h1.38V53.15a1,1,0,0,1,.2-.7.68.68,0,0,1,.52-.22.47.47,0,0,1,.42.18,1,1,0,0,1,.12.52v3.76h1.39V52.78a1.85,1.85,0,0,0-.33-1.19,1.22,1.22,0,0,0-1-.42,1.55,1.55,0,0,0-.84.22,1.17,1.17,0,0,0-.51.64h0a1,1,0,0,0-.43-.64,1.48,1.48,0,0,0-.81-.22,1.82,1.82,0,0,0-.77.16,1.61,1.61,0,0,0-.58.53h0v-.55H85.93Zm-3.44,0h1.38V53.46A1,1,0,0,1,84,53a.73.73,0,0,1,.24-.3,1,1,0,0,1,.33-.17,1.49,1.49,0,0,1,.36,0h.43V51.19h-.25a1.13,1.13,0,0,0-.73.24,1.87,1.87,0,0,0-.51.62h0v-.72H82.49Zm-3.64-3.45a2.53,2.53,0,0,1,.09-.6,1,1,0,0,1,.22-.39.58.58,0,0,1,.41-.14.59.59,0,0,1,.58.44A4.93,4.93,0,0,1,80.31,54a4.83,4.83,0,0,1-.16,1.45.58.58,0,0,1-.58.44.54.54,0,0,1-.41-.14.91.91,0,0,1-.22-.39,2.38,2.38,0,0,1-.09-.6c0-.23,0-.48,0-.76s0-.52,0-.76m-1.3,2a2.24,2.24,0,0,0,.34.89,1.44,1.44,0,0,0,.65.54,2.56,2.56,0,0,0,1,.16,2.43,2.43,0,0,0,1-.18,1.75,1.75,0,0,0,.66-.54,2.59,2.59,0,0,0,.36-.89A6.27,6.27,0,0,0,81.69,54a7.37,7.37,0,0,0-.1-1.23,2.45,2.45,0,0,0-.34-.9,1.41,1.41,0,0,0-.65-.53,2.61,2.61,0,0,0-1-.17,2.29,2.29,0,0,0-1,.19,1.49,1.49,0,0,0-.65.54,2.2,2.2,0,0,0-.36.88A5.64,5.64,0,0,0,77.45,54a6.41,6.41,0,0,0,.1,1.24m-2.68,1.45h1.38V52.25h.8v-.94h-.8v-.47a.42.42,0,0,1,.12-.33.7.7,0,0,1,.41-.1h.27v-1l-.74,0a2.25,2.25,0,0,0-.6.07,1,1,0,0,0-.45.21,1.09,1.09,0,0,0-.29.4,1.81,1.81,0,0,0-.1.61v.61h-.7v.94h.7Zm-5.38,0h1.38V53.12c0-.59.24-.89.73-.89a.55.55,0,0,1,.45.17.93.93,0,0,1,.14.58v3.71h1.38v-4a1.65,1.65,0,0,0-.35-1.17,1.38,1.38,0,0,0-1-.36,1.6,1.6,0,0,0-.8.19,1.45,1.45,0,0,0-.57.58h0v-.63H69.49Zm-1.06-7.14H67v7.14h1.44Z" transform="translate(0 0)"/><path class="cls-3" d="M149.72,43.05h2.82V41.87h-2.82Zm-3.39-4.64h-3.69l-.26,3.85h1.29a.78.78,0,0,1,.2-.47.62.62,0,0,1,.48-.18,1.15,1.15,0,0,1,.4.07.58.58,0,0,1,.25.24,1.32,1.32,0,0,1,.14.46,7.1,7.1,0,0,1,0,.73,2.17,2.17,0,0,1-.2,1,.67.67,0,0,1-.64.34.53.53,0,0,1-.37-.11.7.7,0,0,1-.22-.29,1.18,1.18,0,0,1-.09-.38,2.48,2.48,0,0,1,0-.38h-1.38v.19a3.07,3.07,0,0,0,.07.65,1.63,1.63,0,0,0,.3.64,1.52,1.52,0,0,0,.63.49,2.54,2.54,0,0,0,1.09.19,2.82,2.82,0,0,0,1.12-.19,1.6,1.6,0,0,0,.69-.53,2.16,2.16,0,0,0,.36-.83,5.73,5.73,0,0,0,.1-1.07,4.47,4.47,0,0,0-.08-.82,2.46,2.46,0,0,0-.28-.73,1.44,1.44,0,0,0-.53-.51,1.63,1.63,0,0,0-.84-.2,2.19,2.19,0,0,0-.78.13,1.09,1.09,0,0,0-.52.4h0l.15-1.61h2.61Zm-9.64,3.64v-.21a2.53,2.53,0,0,1,0-.38,1.25,1.25,0,0,1,.12-.34.64.64,0,0,1,.21-.25.63.63,0,0,1,.35-.1.59.59,0,0,1,.34.09.58.58,0,0,1,.21.25,1.36,1.36,0,0,1,.11.4c0,.16,0,.34,0,.54Zm2.73.82v-.31a7.66,7.66,0,0,0-.08-1.12,2.56,2.56,0,0,0-.3-.86,1.48,1.48,0,0,0-.61-.55,2.13,2.13,0,0,0-1-.2,2.36,2.36,0,0,0-1.12.23,1.69,1.69,0,0,0-.65.62,2.53,2.53,0,0,0-.3.89,7.08,7.08,0,0,0-.07,1c0,.34,0,.68,0,1a2.56,2.56,0,0,0,.25.93,1.54,1.54,0,0,0,.62.67,2.16,2.16,0,0,0,1.17.26,1.86,1.86,0,0,0,1.45-.5,2.29,2.29,0,0,0,.5-1.45H138.1a1.92,1.92,0,0,1-.22.76.56.56,0,0,1-.51.25.47.47,0,0,1-.32-.1.67.67,0,0,1-.21-.28,1.56,1.56,0,0,1-.12-.4,3.59,3.59,0,0,1,0-.47v-.43Zm-4.72-1a2.27,2.27,0,0,0-.48-1.52,1.84,1.84,0,0,0-1.45-.56,3.06,3.06,0,0,0-.88.13,1.65,1.65,0,0,0-.69.46,2.38,2.38,0,0,0-.45.87,5.2,5.2,0,0,0-.16,1.37,6.39,6.39,0,0,0,.13,1.36,2.34,2.34,0,0,0,.39.87,1.34,1.34,0,0,0,.64.46,2.47,2.47,0,0,0,.9.14,2,2,0,0,0,1.58-.57,2.51,2.51,0,0,0,.47-1.63h-1.32a2.1,2.1,0,0,1-.16,1,.52.52,0,0,1-.51.3.6.6,0,0,1-.37-.1.68.68,0,0,1-.23-.34,2.49,2.49,0,0,1-.11-.58c0-.24,0-.52,0-.86s0-.57,0-.81a2.5,2.5,0,0,1,.11-.57.72.72,0,0,1,.24-.34.65.65,0,0,1,.41-.12.55.55,0,0,1,.32.1.69.69,0,0,1,.19.25,1.62,1.62,0,0,1,.09.35c0,.13,0,.26,0,.38Zm-9,3.44h1.38V41.78c0-.59.24-.89.73-.89a.55.55,0,0,1,.45.17.93.93,0,0,1,.14.58v3.71h1.38v-4a1.61,1.61,0,0,0-.36-1.17,1.34,1.34,0,0,0-1-.36,1.72,1.72,0,0,0-.8.19,1.45,1.45,0,0,0-.57.58h0V40h-1.32Zm-3.53-3.3v-.21a2.53,2.53,0,0,1,0-.38,1.7,1.7,0,0,1,.12-.34.64.64,0,0,1,.21-.25.63.63,0,0,1,.35-.1.59.59,0,0,1,.34.09.58.58,0,0,1,.21.25,1.36,1.36,0,0,1,.11.4c0,.16,0,.34,0,.54Zm2.73.82v-.31a7.66,7.66,0,0,0-.08-1.12,2.19,2.19,0,0,0-.3-.86,1.48,1.48,0,0,0-.61-.55,2.13,2.13,0,0,0-1-.2,2.36,2.36,0,0,0-1.12.23,1.69,1.69,0,0,0-.65.62,2.53,2.53,0,0,0-.3.89,7.08,7.08,0,0,0-.07,1c0,.34,0,.68,0,1a2.78,2.78,0,0,0,.25.93,1.54,1.54,0,0,0,.62.67,2.16,2.16,0,0,0,1.17.26,1.86,1.86,0,0,0,1.45-.5,2.23,2.23,0,0,0,.5-1.45H123.6a1.76,1.76,0,0,1-.22.76.56.56,0,0,1-.51.25.49.49,0,0,1-.32-.1.67.67,0,0,1-.21-.28,2.09,2.09,0,0,1-.12-.4,3.59,3.59,0,0,1,0-.47v-.43Zm-6.34,2.48H120V40h-1.38Zm0-6H120V38.13h-1.38Zm-.82,2.6a2.27,2.27,0,0,0-.48-1.52,1.84,1.84,0,0,0-1.45-.56A3.06,3.06,0,0,0,115,40a1.65,1.65,0,0,0-.69.46,2.38,2.38,0,0,0-.45.87,5.2,5.2,0,0,0-.16,1.37,6.39,6.39,0,0,0,.13,1.36,2.34,2.34,0,0,0,.39.87,1.34,1.34,0,0,0,.64.46,2.47,2.47,0,0,0,.9.14,2,2,0,0,0,1.58-.57,2.51,2.51,0,0,0,.47-1.63h-1.32a2.1,2.1,0,0,1-.16,1,.52.52,0,0,1-.51.3.6.6,0,0,1-.37-.1.68.68,0,0,1-.23-.34,2.49,2.49,0,0,1-.11-.58c0-.24,0-.52,0-.86s0-.57,0-.81a2.5,2.5,0,0,1,.11-.57.72.72,0,0,1,.24-.34.65.65,0,0,1,.41-.12.55.55,0,0,1,.32.1.69.69,0,0,1,.19.25,1.62,1.62,0,0,1,.09.35c0,.13,0,.26,0,.38Zm-9.49,1.21v.29A2.13,2.13,0,0,0,108.8,45a2.35,2.35,0,0,0,1.74.54,2.81,2.81,0,0,0,1.83-.53A2,2,0,0,0,113,43.3a2.77,2.77,0,0,0-.06-.6,1.43,1.43,0,0,0-.21-.49,1.67,1.67,0,0,0-.42-.42,3.72,3.72,0,0,0-.67-.38l-1.11-.48a1.28,1.28,0,0,1-.6-.41,1.08,1.08,0,0,1-.14-.56,1.65,1.65,0,0,1,0-.31.64.64,0,0,1,.13-.26.69.69,0,0,1,.25-.19,1.15,1.15,0,0,1,.4-.07.67.67,0,0,1,.6.28,1.41,1.41,0,0,1,.18.78h1.38V40a2.08,2.08,0,0,0-.16-.87,1.61,1.61,0,0,0-.46-.6,1.83,1.83,0,0,0-.7-.34,3.56,3.56,0,0,0-.89-.11,2.42,2.42,0,0,0-1.62.52,2,2,0,0,0-.59,1.58,2.57,2.57,0,0,0,.11.78,1.68,1.68,0,0,0,.35.59,2.16,2.16,0,0,0,.58.44,4.6,4.6,0,0,0,.83.35,4.86,4.86,0,0,1,.61.24,1.75,1.75,0,0,1,.39.25.84.84,0,0,1,.22.32,1.27,1.27,0,0,1,.06.41.8.8,0,0,1-.26.67,1,1,0,0,1-.6.21,1.07,1.07,0,0,1-.47-.08.7.7,0,0,1-.29-.22.82.82,0,0,1-.15-.34,3.15,3.15,0,0,1,0-.46v-.21Zm-5.49,2.23h1.38V42.12a1,1,0,0,1,.09-.45.89.89,0,0,1,.24-.3,1,1,0,0,1,.33-.17,1.49,1.49,0,0,1,.36-.05h.43V39.85h-.25a1.14,1.14,0,0,0-.73.24,2,2,0,0,0-.51.62h0V40h-1.32Zm-3.53-3.3v-.21a2.58,2.58,0,0,1,0-.38,1.23,1.23,0,0,1,.11-.34.76.76,0,0,1,.22-.25.6.6,0,0,1,.34-.1.63.63,0,0,1,.35.09.58.58,0,0,1,.21.25,1.37,1.37,0,0,1,.1.4,4.26,4.26,0,0,1,0,.54Zm2.73.82v-.31a6.48,6.48,0,0,0-.08-1.12,2.19,2.19,0,0,0-.3-.86A1.39,1.39,0,0,0,101,40a2.21,2.21,0,0,0-1-.2,2.39,2.39,0,0,0-1.12.23,1.66,1.66,0,0,0-.64.62,2.53,2.53,0,0,0-.3.89,7.07,7.07,0,0,0-.08,1c0,.34,0,.68,0,1a2.77,2.77,0,0,0,.24.93,1.6,1.6,0,0,0,.62.67,2.16,2.16,0,0,0,1.17.26,1.85,1.85,0,0,0,1.45-.5,2.18,2.18,0,0,0,.5-1.45h-1.24a1.76,1.76,0,0,1-.22.76.54.54,0,0,1-.51.25.51.51,0,0,1-.32-.1.89.89,0,0,1-.21-.28,1.56,1.56,0,0,1-.11-.4,3.57,3.57,0,0,1,0-.47v-.43ZM95.29,40h-.7v.94h.7V44a3.25,3.25,0,0,0,0,.68.93.93,0,0,0,.18.44.69.69,0,0,0,.39.23,2.33,2.33,0,0,0,.66.07,3.24,3.24,0,0,0,.45,0l.45,0v-1l-.15,0h-.16c-.2,0-.34,0-.4-.13a.86.86,0,0,1-.09-.46V40.91h.8V40h-.8V38.43H95.29Zm-2.64,5.38H94V40H92.59v3.57c0,.6-.24.89-.73.89a.55.55,0,0,1-.45-.16,1,1,0,0,1-.14-.59V40H89.89v4a1.61,1.61,0,0,0,.36,1.17,1.34,1.34,0,0,0,1,.36,1.71,1.71,0,0,0,.8-.18,1.41,1.41,0,0,0,.57-.59h0Zm-6.3-4a.61.61,0,0,1,1.18,0,6.82,6.82,0,0,1,0,2.65.62.62,0,0,1-1.18,0,6.34,6.34,0,0,1,0-2.65m-1.52,5.77h1.38V44.85h0a1.51,1.51,0,0,0,.5.48,1.24,1.24,0,0,0,.66.16,1.35,1.35,0,0,0,1.25-.66,4.37,4.37,0,0,0,.4-2.17,4.32,4.32,0,0,0-.4-2.16,1.35,1.35,0,0,0-1.25-.67,1.37,1.37,0,0,0-.7.17,1.59,1.59,0,0,0-.52.54h0V40H84.83ZM77.2,45.35h1.38V41.81a1,1,0,0,1,.2-.7.68.68,0,0,1,.52-.22.48.48,0,0,1,.42.18,1,1,0,0,1,.12.52v3.76h1.38V41.81a1,1,0,0,1,.2-.7.68.68,0,0,1,.52-.22.48.48,0,0,1,.42.18,1,1,0,0,1,.12.52v3.76h1.38V41.44a1.94,1.94,0,0,0-.32-1.19,1.22,1.22,0,0,0-1-.42,1.61,1.61,0,0,0-.84.22,1.23,1.23,0,0,0-.52.64h0a1.08,1.08,0,0,0-.43-.64,1.48,1.48,0,0,0-.81-.22,1.79,1.79,0,0,0-.77.16,1.72,1.72,0,0,0-.59.53h0V40H77.2ZM73.56,41.9a2.53,2.53,0,0,1,.09-.6,1,1,0,0,1,.22-.39.6.6,0,0,1,.41-.14.59.59,0,0,1,.58.44A4.6,4.6,0,0,1,75,42.66a4.52,4.52,0,0,1-.16,1.45.58.58,0,0,1-.58.44.55.55,0,0,1-.41-.14.91.91,0,0,1-.22-.39,2.38,2.38,0,0,1-.09-.6c0-.23,0-.48,0-.76s0-.52,0-.76m-1.3,2a2.4,2.4,0,0,0,.34.89,1.49,1.49,0,0,0,.65.54,3.08,3.08,0,0,0,2,0,1.58,1.58,0,0,0,.66-.54,2.25,2.25,0,0,0,.36-.89,6.27,6.27,0,0,0,.11-1.22,6.51,6.51,0,0,0-.1-1.23,2.45,2.45,0,0,0-.34-.9,1.47,1.47,0,0,0-.65-.53,2.58,2.58,0,0,0-1-.17,2.48,2.48,0,0,0-1,.19,1.55,1.55,0,0,0-.65.54,2.26,2.26,0,0,0-.36.88,7.25,7.25,0,0,0,0,2.46m-.85-3.28a6.23,6.23,0,0,0-.06-.83,2,2,0,0,0-.27-.83,1.73,1.73,0,0,0-.67-.64,2.54,2.54,0,0,0-1.21-.25,2.63,2.63,0,0,0-1.29.28,1.87,1.87,0,0,0-.74.76,3.34,3.34,0,0,0-.33,1.18,13.8,13.8,0,0,0-.07,1.49,14,14,0,0,0,.07,1.5,3.23,3.23,0,0,0,.33,1.17,1.83,1.83,0,0,0,.74.77,2.63,2.63,0,0,0,1.29.27,2.4,2.4,0,0,0,1.15-.23,1.67,1.67,0,0,0,.69-.62,2.41,2.41,0,0,0,.34-.92,6.36,6.36,0,0,0,.09-1.1H70a4.8,4.8,0,0,1-.07.94,1.74,1.74,0,0,1-.19.55.59.59,0,0,1-.29.26,1,1,0,0,1-.35.06.91.91,0,0,1-.41-.09.76.76,0,0,1-.29-.37,3.3,3.3,0,0,1-.17-.78c0-.33-.05-.77-.05-1.31s0-.93,0-1.28a4,4,0,0,1,.14-.85,1,1,0,0,1,.27-.47.78.78,0,0,1,1.12.21A2.47,2.47,0,0,1,70,40.62Z" transform="translate(0 0)"/></g></svg>